<?xml version="1.0" encoding="UTF-8" standalone="no"?>
<svg width="74px" height="74px" viewBox="0 0 74 74" version="1.1" xmlns="http://www.w3.org/2000/svg" xmlns:xlink="http://www.w3.org/1999/xlink">
    <!-- Generator: Sketch 3.8.3 (29802) - http://www.bohemiancoding.com/sketch -->
    <title>icon_profile</title>
    <desc>Created with Sketch.</desc>
    <defs></defs>
    <g id="Page-1" stroke="none" stroke-width="1" fill="none" fill-rule="evenodd">
        <g id="slingshot_home" transform="translate(-323.000000, -1384.000000)" stroke="#57ADF1" stroke-width="2">
            <g id="how-it-works" transform="translate(195.000000, 1099.000000)">
                <g id="1-2-3" transform="translate(0.000000, 285.000000)">
                    <g id="icon_profile" transform="translate(129.000000, 1.000000)">
                        <path d="M29.442,55.0247 C29.442,55.0247 31.631,59.3087 36,59.3087 C39.964,59.3087 42.453,55.0207 42.453,55.0207" id="Stroke-1"></path>
                        <path d="M42.4534,55.0206 C42.2434,54.1126 42.2014,51.7406 42.4064,50.1146 C47.1574,46.8036 52.6854,40.1106 54.4714,34.1676 C54.4714,34.1676 55.5564,34.3926 56.1374,34.3926 C57.0994,34.3926 58.4384,30.2966 58.5834,27.5986 C58.7294,24.9006 57.1544,23.5176 56.1934,23.4656 C56.0414,23.4576 55.2624,23.7136 55.1164,23.8086 C55.1164,23.8086 58.1304,14.0166 57.0474,7.9626 C56.4434,4.5886 54.6304,2.1006 50.3674,0.9936 C41.8574,-1.2144 14.5644,0.9466 14.5644,0.9466 L18.7134,4.6836 C18.7134,4.6836 13.5474,5.6006 14.4434,11.3536 C15.9014,20.7196 16.8834,23.8086 16.8834,23.8086 C16.7374,23.7136 15.9584,23.4576 15.8064,23.4656 C14.8454,23.5176 13.2704,24.9006 13.4164,27.5986 C13.5614,30.2966 14.9004,34.3926 15.8634,34.3926 C16.4434,34.3926 17.5294,34.1676 17.5294,34.1676 C19.2784,39.9886 24.7784,46.5766 29.4784,49.9156 C29.6684,51.5576 29.6364,54.1396 29.4424,55.0246 C-0.2866,57.0516 0.000399999999,71.8086 0.000399999999,71.8086 L72.0004,71.8086 C72.0004,71.8086 71.9964,57.0326 42.4534,55.0206 L42.4534,55.0206 Z" id="Stroke-3" stroke-linejoin="round"></path>
                        <path d="M16.8835,23.809 C16.8835,23.809 15.9015,20.719 14.4425,11.354 C13.5475,5.6 18.7135,4.684 18.7135,4.684 L14.5645,0.946 C14.5645,0.946 41.8575,-1.214 50.3675,0.994 C54.6305,2.1 56.4435,4.588 57.0475,7.962 C58.1305,14.017 55.1165,23.809 55.1165,23.809 L51.7135,23.684 C51.7135,23.684 52.8805,16.517 46.3805,16.517 L30.8805,16.517 C27.5475,16.517 31.8805,19.184 31.8805,19.184 L22.2975,19.184 C18.8805,19.184 19.7135,23.684 19.7135,23.684 L16.8835,23.809 L16.8835,23.809 Z" id="Stroke-5" stroke-linejoin="round"></path>
                    </g>
                </g>
            </g>
        </g>
    </g>
</svg>