<?xml version="1.0" encoding="UTF-8" standalone="no"?>
<svg width="80px" height="76px" viewBox="0 0 80 76" version="1.1" xmlns="http://www.w3.org/2000/svg" xmlns:xlink="http://www.w3.org/1999/xlink">
    <!-- Generator: Sketch 39.1 (31720) - http://www.bohemiancoding.com/sketch -->
    <title>icon_share</title>
    <desc>Created with Sketch.</desc>
    <defs></defs>
    <g id="Page-1" stroke="none" stroke-width="1" fill="none" fill-rule="evenodd">
        <g id="slingshot_Share" transform="translate(-320.000000, -912.000000)" stroke="#57ADF1" stroke-width="3">
            <g id="1-2-3" transform="translate(195.000000, 913.000000)">
                <g id="icon_share" transform="translate(129.000000, 1.000000)">
                    <path d="M55.2202813,17.7920703 C54.9109187,17.0609934 54.5722813,16.3449495 54.2051604,15.6463121" id="Stroke-1"></path>
                    <path d="M51.7715604,11.7989802 C46.5756923,4.87511209 38.2980659,0.395287912 28.9752527,0.395287912 C13.2444396,0.395287912 0.491736264,13.1479912 0.491736264,28.8788044 C0.491736264,35.0747604 2.46975824,40.8086505 5.82923077,45.4839033" id="Stroke-3" stroke-dasharray="5.76,5.76"></path>
                    <path d="M7.22761319,47.274567 C7.73873407,47.8782593 8.27517363,48.460589 8.83455824,49.0199736 L7.15561319,50.6981275" id="Stroke-5"></path>
                    <polyline id="Stroke-7" points="2.17004835 55.6842462 0.491894505 57.3624 2.86552088 57.3624"></polyline>
                    <path d="M7.30341099,57.3626374 L13.9606418,57.3626374" id="Stroke-9" stroke-dasharray="5.609,5.609"></path>
                    <path d="M16.1797451,57.3626374 L18.5533714,57.3626374" id="Stroke-11"></path>
                    <path d="M43.2168527,14.6373626 C58.9476659,14.6373626 71.7003692,27.3900659 71.7003692,43.1208791 C71.7003692,50.9862857 68.512589,58.1071648 63.3578637,63.2618901 L71.7003692,71.6043956 L43.2168527,71.6043956 C27.4860396,71.6043956 14.7333363,58.8516923 14.7333363,43.1208791 C14.7333363,27.3900659 27.4860396,14.6373626 43.2168527,14.6373626 L43.2168527,14.6373626 Z" id="Stroke-13"></path>
                </g>
            </g>
        </g>
    </g>
</svg>