<?xml version="1.0" encoding="UTF-8" standalone="no"?>
<svg width="74px" height="74px" viewBox="0 0 74 74" version="1.1" xmlns="http://www.w3.org/2000/svg" xmlns:xlink="http://www.w3.org/1999/xlink">
    <!-- Generator: Sketch 3.8.3 (29802) - http://www.bohemiancoding.com/sketch -->
    <title>icon_plan</title>
    <desc>Created with Sketch.</desc>
    <defs></defs>
    <g id="Page-1" stroke="none" stroke-width="1" fill="none" fill-rule="evenodd">
        <g id="slingshot_home" transform="translate(-683.000000, -1384.000000)">
            <g id="how-it-works" transform="translate(195.000000, 1099.000000)">
                <g id="1-2-3" transform="translate(0.000000, 285.000000)">
                    <g id="icon_plan" transform="translate(489.000000, 1.000000)">
                        <polyline id="Stroke-1" stroke="#57ADF1" stroke-width="2" stroke-linecap="round" stroke-linejoin="round" points="54 36 54 72 0 72 0 18 36 18"></polyline>
                        <path d="M10.625,27 C10.625,27.725 10.037,28.312 9.313,28.312 C8.588,28.312 8,27.725 8,27 C8,26.275 8.588,25.688 9.313,25.688 C10.037,25.688 10.625,26.275 10.625,27" id="Fill-3" fill="#57ADF1"></path>
                        <path d="M18,27 L38.414,27" id="Stroke-5" stroke="#57ADF1" stroke-width="2" stroke-linecap="round" stroke-linejoin="round"></path>
                        <path d="M10.625,36 C10.625,36.725 10.037,37.312 9.313,37.312 C8.588,37.312 8,36.725 8,36 C8,35.275 8.588,34.688 9.313,34.688 C10.037,34.688 10.625,35.275 10.625,36" id="Fill-7" fill="#57ADF1"></path>
                        <path d="M18,36 L45,36" id="Stroke-9" stroke="#57ADF1" stroke-width="2" stroke-linecap="round" stroke-linejoin="round"></path>
                        <path d="M10.625,45 C10.625,45.725 10.037,46.312 9.313,46.312 C8.588,46.312 8,45.725 8,45 C8,44.275 8.588,43.688 9.313,43.688 C10.037,43.688 10.625,44.275 10.625,45" id="Fill-11" fill="#57ADF1"></path>
                        <path d="M18,45 L45,45" id="Stroke-13" stroke="#57ADF1" stroke-width="2" stroke-linecap="round" stroke-linejoin="round"></path>
                        <path d="M10.625,54 C10.625,54.725 10.037,55.312 9.313,55.312 C8.588,55.312 8,54.725 8,54 C8,53.275 8.588,52.688 9.313,52.688 C10.037,52.688 10.625,53.275 10.625,54" id="Fill-15" fill="#57ADF1"></path>
                        <path d="M18,54 L45,54" id="Stroke-17" stroke="#57ADF1" stroke-width="2" stroke-linecap="round" stroke-linejoin="round"></path>
                        <path d="M10.625,63 C10.625,63.725 10.037,64.312 9.313,64.312 C8.588,64.312 8,63.725 8,63 C8,62.275 8.588,61.688 9.313,61.688 C10.037,61.688 10.625,62.275 10.625,63" id="Fill-19" fill="#57ADF1"></path>
                        <path d="M18,63 L45,63" id="Stroke-21" stroke="#57ADF1" stroke-width="2" stroke-linecap="round" stroke-linejoin="round"></path>
                        <path d="M72,18 C72,27.941 63.941,36 54,36 C44.059,36 36,27.941 36,18 C36,8.059 44.059,0 54,0 C63.941,0 72,8.059 72,18 L72,18 Z" id="Stroke-23" stroke="#57ADF1" stroke-width="2" stroke-linejoin="round"></path>
                        <polyline id="Stroke-25" stroke="#57ADF1" stroke-width="2" stroke-linecap="round" stroke-linejoin="round" points="45 18 51 24 63 12"></polyline>
                    </g>
                </g>
            </g>
        </g>
    </g>
</svg>