<?xml version="1.0" encoding="UTF-8" standalone="no"?>
<svg width="75px" height="75px" viewBox="0 0 75 75" version="1.1" xmlns="http://www.w3.org/2000/svg" xmlns:xlink="http://www.w3.org/1999/xlink">
    <!-- Generator: Sketch 3.8.3 (29802) - http://www.bohemiancoding.com/sketch -->
    <title>icon_luggage</title>
    <desc>Created with Sketch.</desc>
    <defs></defs>
    <g id="Page-1" stroke="none" stroke-width="1" fill="none" fill-rule="evenodd">
        <g id="slingshot_home" transform="translate(-1043.000000, -1383.000000)">
            <g id="how-it-works" transform="translate(195.000000, 1099.000000)">
                <g id="1-2-3" transform="translate(0.000000, 285.000000)">
                    <g id="icon_luggage" transform="translate(849.000000, 0.000000)">
                        <polygon id="Stroke-1" stroke="#57ADF1" stroke-width="2" stroke-linejoin="round" points="0.5 72.5 72.5 72.5 72.5 27.5 0.5 27.5"></polygon>
                        <polygon id="Stroke-3" stroke="#57ADF1" stroke-width="2" stroke-linejoin="round" points="9.5 27.5 63.5 27.5 63.5 0.5 9.5 0.5"></polygon>
                        <path d="M61.3483,36 L72.5003,36" id="Stroke-4" stroke="#57ADF1" stroke-width="2" stroke-linejoin="round"></path>
                        <path d="M18.4997,36 L54.4997,36" id="Stroke-6" stroke="#57ADF1" stroke-width="2" stroke-linejoin="round"></path>
                        <path d="M0.5,36 L11.667,36" id="Stroke-7" stroke="#57ADF1" stroke-width="2" stroke-linejoin="round"></path>
                        <polyline id="Stroke-9" stroke="#57ADF1" stroke-width="2" stroke-linejoin="round" points="45.5 45.5 45.5 54.5 27.5 54.5 27.5 45.5"></polyline>
                        <path d="M0.5,63 L72.5,63" id="Stroke-10" stroke="#57ADF1" stroke-width="2" stroke-linejoin="round"></path>
                        <polygon id="Stroke-12" stroke="#57ADF1" stroke-width="2" stroke-linejoin="round" points="11.667 42.5 18.5 42.5 18.5 33.083 11.667 33.083"></polygon>
                        <path d="M28.5,48.5 L26.5,48.5 C25.395,48.5 24.5,47.605 24.5,46.5 L24.5,44.5 C24.5,43.395 25.395,42.5 26.5,42.5 L28.5,42.5 C29.605,42.5 30.5,43.395 30.5,44.5 L30.5,46.5 C30.5,47.605 29.605,48.5 28.5,48.5 L28.5,48.5 Z" id="Fill-13" fill="#57ADF1"></path>
                        <path d="M46.5,48.5 L44.5,48.5 C43.395,48.5 42.5,47.605 42.5,46.5 L42.5,44.5 C42.5,43.395 43.395,42.5 44.5,42.5 L46.5,42.5 C47.605,42.5 48.5,43.395 48.5,44.5 L48.5,46.5 C48.5,47.605 47.605,48.5 46.5,48.5" id="Fill-15" fill="#57ADF1"></path>
                        <polygon id="Stroke-17" stroke="#57ADF1" stroke-width="2" stroke-linejoin="round" points="54.515 42.5 61.348 42.5 61.348 33.083 54.515 33.083"></polygon>
                        <path d="M9.5,14 L63.5,14" id="Stroke-19" stroke="#57ADF1" stroke-width="2" stroke-linejoin="round"></path>
                        <polygon id="Fill-20" fill="#FFFFFF" points="18.5 18.5 24.5 18.5 24.5 9.5 18.5 9.5"></polygon>
                        <polygon id="Stroke-21" stroke="#57ADF1" stroke-width="2" stroke-linejoin="round" points="18.5 18.5 24.5 18.5 24.5 9.5 18.5 9.5"></polygon>
                        <polygon id="Fill-22" fill="#FFFFFF" points="48.5 18.5 54.5 18.5 54.5 9.5 48.5 9.5"></polygon>
                        <polygon id="Stroke-23" stroke="#57ADF1" stroke-width="2" stroke-linejoin="round" points="48.5 18.5 54.5 18.5 54.5 9.5 48.5 9.5"></polygon>
                        <polygon id="Stroke-24" stroke="#57ADF1" stroke-width="2" stroke-linejoin="round" points="31.833 19.421 41.25 19.421 41.25 14 31.833 14"></polygon>
                    </g>
                </g>
            </g>
        </g>
    </g>
</svg>