<?xml version="1.0" encoding="UTF-8" standalone="no"?>
<svg width="75px" height="48px" viewBox="0 0 75 48" version="1.1" xmlns="http://www.w3.org/2000/svg" xmlns:xlink="http://www.w3.org/1999/xlink">
    <!-- Generator: Sketch 3.8.3 (29802) - http://www.bohemiancoding.com/sketch -->
    <title>icon_credit-card</title>
    <desc>Created with Sketch.</desc>
    <defs></defs>
    <g id="Page-1" stroke="none" stroke-width="1" fill="none" fill-rule="evenodd">
        <g id="slingshot_home" transform="translate(-284.000000, -3722.000000)">
            <g id="secure-content" transform="translate(285.000000, 3713.000000)">
                <g id="icon_credit-card" transform="translate(0.000000, 10.000000)">
                    <path d="M69.5,45.5 L3.5,45.5 C1.843,45.5 0.5,44.157 0.5,42.5 L0.5,3.5 C0.5,1.843 1.843,0.5 3.5,0.5 L69.5,0.5 C71.157,0.5 72.5,1.843 72.5,3.5 L72.5,42.5 C72.5,44.157 71.157,45.5 69.5,45.5 L69.5,45.5 Z" id="Stroke-1" stroke="#57ADF1" stroke-width="2" stroke-linecap="round" stroke-linejoin="round"></path>
                    <polygon id="Fill-3" fill="#57ADF1" points="0.5 18.5 72.5 18.5 72.5 9.5 0.5 9.5"></polygon>
                    <path d="M9.5,27 L27.5,27" id="Stroke-5" stroke="#57ADF1" stroke-width="2" stroke-linecap="round" stroke-linejoin="round"></path>
                    <path d="M9.5,36 L27.5,36" id="Stroke-6" stroke="#57ADF1" stroke-width="2" stroke-linecap="round" stroke-linejoin="round"></path>
                </g>
            </g>
        </g>
    </g>
</svg>