<?xml version="1.0" encoding="UTF-8" standalone="no"?>
<svg width="57px" height="75px" viewBox="0 0 57 75" version="1.1" xmlns="http://www.w3.org/2000/svg" xmlns:xlink="http://www.w3.org/1999/xlink">
    <!-- Generator: Sketch 3.8.3 (29802) - http://www.bohemiancoding.com/sketch -->
    <title>icon_lock</title>
    <desc>Created with Sketch.</desc>
    <defs></defs>
    <g id="Page-1" stroke="none" stroke-width="1" fill="none" fill-rule="evenodd" stroke-linecap="round" stroke-linejoin="round">
        <g id="slingshot_home" transform="translate(-291.000000, -3962.000000)" stroke="#57ADF1" stroke-width="2">
            <g id="secure-content" transform="translate(285.000000, 3713.000000)">
                <g id="icon_lock" transform="translate(7.000000, 250.000000)">
                    <polygon id="Stroke-1" points="0.5 72.5 54.5 72.5 54.5 27.5 0.5 27.5"></polygon>
                    <path d="M45.5,27.5 L9.5,27.5 L9.5,10.5 C9.5,4.977 13.977,0.5 19.5,0.5 L35.5,0.5 C41.023,0.5 45.5,4.977 45.5,10.5 L45.5,27.5 L45.5,27.5 Z" id="Stroke-3"></path>
                    <path d="M36.5,27.5 L18.5,27.5 L18.5,13.5 C18.5,11.291 20.291,9.5 22.5,9.5 L32.5,9.5 C34.709,9.5 36.5,11.291 36.5,13.5 L36.5,27.5 L36.5,27.5 Z" id="Stroke-4"></path>
                    <path d="M32,45.5 C32,43.015 29.985,41 27.5,41 C25.015,41 23,43.015 23,45.5 C23,47.487 23.297,49.154 25.083,49.75 L23,59 L32,59 L29.917,49.75 C31.703,49.154 32,47.487 32,45.5 L32,45.5 Z" id="Stroke-5"></path>
                </g>
            </g>
        </g>
    </g>
</svg>