<?xml version="1.0" encoding="utf-8"?>
<!-- Generator: Adobe Illustrator 20.0.0, SVG Export Plug-In . SVG Version: 6.00 Build 0)  -->
<svg version="1.1" id="Layer_1" xmlns="http://www.w3.org/2000/svg" xmlns:xlink="http://www.w3.org/1999/xlink" x="0px" y="0px"
	 viewBox="0 0 546.3 183.6" style="enable-background:new 0 0 546.3 183.6;" xml:space="preserve">
<style type="text/css">
	.st0{fill:#FFFFFF;}
</style>
<g>
	<path class="st0" d="M346.9,63.5h12.5"/>
	<path class="st0" d="M172.4,50.5c6.6-0.5,13.2-1,19.9-1.6c14.3-1.1,28.6-2.3,42.9-3.8l21.4-2.2c7.1-0.8,14.2-1.7,21.4-2.6l21.3-2.9
		l21.3-3.3c14.2-2.3,28.3-4.7,42.4-7.2c14.1-2.6,28.2-5.4,42.2-8.3c7-1.4,14-3,21-4.5s14-3.1,21-4.8l-0.6-2.8l-42.3,7.3
		c-14.1,2.5-28.2,4.8-42.4,7c-14.1,2.3-28.3,4.6-42.4,6.6l-42.5,6l-21.3,2.8L234.4,39c-14.2,1.8-28.4,3.5-42.6,5
		c-5.2,0.5-10.4,1-15.5,1.5c-0.2,0.5-0.4,1-0.7,1.5C174.8,48.3,173.7,49.5,172.4,50.5z"/>
	<path class="st0" d="M111.9,58L111.9,58C111.9,57.9,111.9,57.9,111.9,58C111.9,57.9,111.9,58,111.9,58z"/>
	<path class="st0" d="M141.8,62.9c0.4,5.1,0.8,11.4,1.1,12.4c0.2,0.8,1.8,0.7,1.8,0.7s1.8-0.5,4-1.1c1.3-0.3,1.7-1.8,1.7-1.8
		l3.8-10.4c-2,0-4,0.1-5.9,0.1C146.1,62.9,144,62.9,141.8,62.9z"/>
	<path class="st0" d="M118.6,63.2l-0.6,4.5l4.3-1.2l1.2-3.3c-1.2,0-2.3,0-3.5,0C119.5,63.2,119,63.2,118.6,63.2z"/>
	<path class="st0" d="M119.4,55.5"/>
	<path class="st0" d="M158.3,51.5"/>
	<path class="st0" d="M113.6,55.2"/>
	<path class="st0" d="M174,56.6"/>
	<polyline class="st0" points="158.3,51.5 156.3,55 141.4,55 140.5,53 	"/>
	<path class="st0" d="M172,41.7c-1.9-6.3-16.8-1.6-16.8-1.6l-18.1-15.3c-0.9-0.6-1.4-0.4-1.4-0.4s-3.1,0.6-4.8,1.3
		c-1.7,0.6-0.8,1.8-0.8,1.8l8.4,17l-0.9,0.4l-4.9,2.3l-7.4,3.4l0,0l-0.6,0.3l-0.9,0.4l-0.7-0.5l-1.9-1.4l-4.8-3.5l-4.2,1.1l2.9,3.5
		l1.2,1.4l3,3.6c0.1,0,0.1,0,0.2,0l-0.2,1l37-1.4L153,52c1.7-0.1,3.5-0.3,5.2-0.4l0,0c0,0,6.8-1.5,10.9-4.3l0,0
		c0.1-0.1,0.2-0.1,0.3-0.2s0.2-0.2,0.3-0.2l0.1-0.1c0.2-0.2,0.4-0.3,0.6-0.5h-0.1l0,0h0.1c0.6-0.6,1-1.1,1.4-1.8
		C172.2,43.5,172.3,42.7,172,41.7z"/>
	<path class="st0" d="M532.8,14.3c-8.8,1.6-14.7,4.6-23.5,6.1l-26.4,4.3c-8.8,1.4-17.6,2.7-26.4,4L430,32.4
		c-17.7,2.4-35.3,4.7-53,6.7c-8.8,1.1-17.7,2-26.5,3.1l-26.6,3c-8.9,1-17.7,1.9-26.6,2.8s-17.7,1.8-26.6,2.5
		c-8.9,0.8-17.8,1.4-26.7,2.1c-8.9,0.6-17.8,1.2-26.7,1.7s-17.8,1-26.7,1.3l-13.4,0.6l-13.4,0.4c-0.7,0-1.4,0-2.1,0.1l0,0h-0.2
		c-0.1,0-0.2,0-0.3,0c-1.6,0.1-3.3,0.1-4.9,0.1l0,0l-6.9,0.2l0,0l-33.9,0.4l-3.7-3.9l0,0l-0.3-0.3c-0.1,0.1-0.3,0.1-0.5,0.2
		c-0.9,0.5-2.1,1-3,2.6c-0.4,0.8-0.5,1.8-0.4,2.6c0.2,0.8,0.5,1.4,0.8,1.9l0.6,1l4.9-0.1l49.6-0.6c0.1,0,0.2,0,0.2,0l13.4-0.3
		l13.4-0.4c8.9-0.3,17.9-0.7,26.8-1l26.8-1.3l26.8-1.6c8.9-0.5,17.8-1.1,26.8-1.8c8.9-0.7,17.8-1.4,26.7-2.2l13.4-1.2l13.3-1.4
		c8.9-0.9,17.8-2,26.6-3.1c8.9-1.1,17.7-2.4,26.6-3.6s17.7-2.6,26.5-4s17.6-2.9,26.4-4.5s17.6-3.3,26.3-5l13.1-2.7l13.1-2.9
		c8.7-2,20.2-6.4,28.8-8.7L532.8,14.3z"/>
	<path class="st0" d="M546.3,13.8l-47,10.1v119.2h-15.8V23.8l-48.9-10V0c55.8,18.6,111.6,0,111.6,0L546.3,13.8L546.3,13.8z"/>
	<polygon class="st0" points="530.5,4 531.9,16.6 539.9,15 538.8,2.1 	"/>
	<path class="st0" d="M438.1,1.1c0,0,7.2,2,8.8,2.4c0.2,0-0.8,12.6-0.8,12.6l-8.8-1.8L438.1,1.1z"/>
	<path class="st0" d="M48.8,72.4c4.8,2.5,8.9,6.2,12.2,11.3l-9.1,8.2c-2.1-4.5-4.7-7.7-7.8-9.7s-7.3-3-12.5-3s-9.1,1-12,3.1
		c-2.8,2.1-4.3,4.7-4.3,7.9c0,3,1.4,5.4,4.1,7.1c2.8,1.8,7.7,3.3,14.8,4.5c6.6,1.2,11.9,2.7,15.8,4.5s6.8,4.1,8.6,6.8
		c1.8,2.7,2.7,6.1,2.7,10.1c0,4.3-1.2,8.1-3.7,11.4c-2.5,3.3-5.9,5.8-10.4,7.6c-4.4,1.8-9.6,2.6-15.4,2.6c-15,0-25.6-5-31.8-15
		l8.4-8.4c2.4,4.5,5.5,7.8,9.2,9.9c3.8,2.1,8.5,3.1,14.1,3.1c5.3,0,9.5-0.9,12.5-2.7s4.5-4.4,4.5-7.8c0-2.7-1.4-4.9-4.1-6.5
		s-7.5-3.1-14.3-4.4s-12.2-2.8-16.2-4.7s-7-4.2-8.8-6.9c-1.8-2.8-2.7-6.1-2.7-10.1c0-4.2,1.2-8,3.5-11.4s5.7-6.2,10-8.2
		c4.4-2,9.5-3,15.3-3C38.2,68.7,44,70,48.8,72.4z"/>
	<path class="st0" d="M88.1,127.4c0,2.8,0.4,4.7,1.2,5.8c0.8,1.1,2.4,1.6,4.6,1.6c1.4,0,2.6-0.1,3.6-0.3s2.3-0.6,3.8-1.2l-1.3,9.6
		c-2.5,1.3-5.6,1.9-9.3,1.9c-5,0-8.7-1.3-11-3.8c-2.4-2.5-3.5-6.5-3.5-12V62.6h12L88.1,127.4L88.1,127.4z"/>
	<path class="st0" d="M123.4,143.8h-12v-56h12V143.8z"/>
	<path class="st0" d="M187.4,92c3.9,3.6,5.9,8.7,5.9,15.5v36.3h-12v-32.5c0-9.9-4-14.8-12-14.8c-4.2,0-7.8,1.4-10.8,4.3
		s-4.5,7.3-4.5,13.3v29.7h-12v-56h10.6l0.6,9.3c1.9-3.5,4.4-6.1,7.7-7.8c3.3-1.7,7-2.6,11.2-2.6C178.4,86.7,183.5,88.5,187.4,92z"/>
	<path class="st0" d="M257.2,138.9c3.1,2.5,4.7,6,4.7,10.5c0,3.8-1.3,7.1-3.8,9.9c-2.5,2.8-5.9,4.9-10.3,6.4s-9.3,2.2-14.7,2.2
		c-8.9,0-15.6-1.3-20-3.9c-4.4-2.6-6.7-6.1-6.7-10.4c0-2.5,0.9-4.8,2.6-6.7c1.8-1.9,4.2-3.3,7.3-4.1c-2.4-1.1-4.3-2.6-5.7-4.3
		c-1.4-1.8-2.1-3.9-2.1-6.3c0-5.4,2.9-9.2,8.7-11.2c-2.8-1.6-5-3.8-6.4-6.4c-1.5-2.6-2.2-5.6-2.2-9c0-3.7,1-7,3-9.9s4.9-5.1,8.6-6.7
		c3.7-1.6,7.9-2.4,12.7-2.4c4.1,0,7.9,0.6,11.3,1.8c1-4.1,2.9-7.2,5.7-9.4c2.7-2.1,6.3-3.2,10.8-3.1l2,9.3c-3.6-0.1-6.5,0.4-8.7,1.3
		c-2.2,1-3.7,2.4-4.5,4.4c2.5,1.7,4.4,3.8,5.7,6.3s2,5.2,2,8.3c0,5.8-2.2,10.3-6.7,13.8c-4.4,3.4-10.3,5.2-17.6,5.2
		c-3.4,0-6.5-0.3-9.3-1c-1.9,0.4-3.2,1.2-4.1,2.2c-0.9,1-1.3,2.3-1.3,4s0.6,3,1.8,4c1.2,0.9,2.9,1.4,5.1,1.4h18.7
		C249.7,135,254.1,136.3,257.2,138.9z M247,156.5c3.1-1.6,4.6-3.5,4.6-5.8c0-1.9-0.7-3.3-2.2-4.3s-4-1.5-7.5-1.5h-15.1
		c-3.4,0-5.9,0.5-7.6,1.6c-1.7,1-2.5,2.5-2.5,4.4c0,2.5,1.5,4.5,4.4,5.9s7.3,2.1,13.2,2.1C239.7,158.9,244,158.1,247,156.5z
		 M224.4,98c-2.3,2-3.5,4.5-3.5,7.6s1.2,5.7,3.5,7.7s5.2,3,8.6,3c3.5,0,6.4-1,8.7-3s3.4-4.5,3.4-7.7c0-3.1-1.1-5.7-3.4-7.6
		s-5.2-2.9-8.7-2.9C229.6,95.1,226.7,96,224.4,98z"/>
	<path class="st0" d="M317.7,72.4c4.8,2.5,8.9,6.2,12.2,11.3l-9.1,8.2c-2.1-4.5-4.7-7.7-7.8-9.7c-3.1-2-7.3-3-12.5-3s-9.1,1-12,3.1
		c-2.8,2.1-4.3,4.7-4.3,7.9c0,3,1.4,5.4,4.1,7.1c2.8,1.8,7.7,3.3,14.8,4.5c6.6,1.2,11.9,2.7,15.8,4.5s6.8,4.1,8.6,6.8
		c1.8,2.7,2.7,6.1,2.7,10.1c0,4.3-1.2,8.1-3.7,11.4c-2.5,3.3-5.9,5.8-10.4,7.6c-4.4,1.8-9.6,2.6-15.4,2.6c-15,0-25.6-5-31.8-15
		l8.4-8.4c2.4,4.5,5.5,7.8,9.2,9.9c3.8,2.1,8.5,3.1,14.1,3.1c5.3,0,9.5-0.9,12.5-2.7s4.5-4.4,4.5-7.8c0-2.7-1.4-4.9-4.1-6.5
		s-7.5-3.1-14.3-4.4s-12.2-2.8-16.2-4.7s-7-4.2-8.8-6.9c-1.8-2.8-2.7-6.1-2.7-10.1c0-4.2,1.2-8,3.5-11.4s5.7-6.2,10-8.2
		c4.4-2,9.5-3,15.3-3C307.1,68.7,312.9,70,317.7,72.4z"/>
	<path class="st0" d="M390.7,92c3.9,3.6,5.9,8.7,5.9,15.5v36.3h-12v-32.5c0-9.9-4-14.8-12-14.8c-4.2,0-7.8,1.5-10.8,4.4
		s-4.5,7.4-4.5,13.3v29.6h-12V62.6h12v34.2c1.9-3.4,4.3-6,7.4-7.6s6.7-2.5,10.7-2.5C381.7,86.7,386.7,88.5,390.7,92z"/>
	<path class="st0" d="M459.8,94.4c4.9,5.2,7.4,12.3,7.4,21.4s-2.5,16.2-7.4,21.4s-11.8,7.7-20.5,7.7s-15.6-2.6-20.5-7.7
		c-4.9-5.2-7.4-12.3-7.4-21.4s2.5-16.2,7.4-21.4s11.8-7.7,20.5-7.7C448.1,86.7,454.9,89.2,459.8,94.4z M427.6,101.2
		c-2.7,3.4-4.1,8.3-4.1,14.6s1.4,11.2,4.1,14.6c2.7,3.4,6.6,5.1,11.7,5.1s9-1.7,11.8-5.2c2.8-3.4,4.1-8.3,4.1-14.6
		s-1.4-11.1-4.1-14.6c-2.8-3.4-6.7-5.2-11.8-5.2C434.2,96.1,430.3,97.8,427.6,101.2z"/>
</g>
<g>
	<path class="st0" d="M421.5,159.8h9.4c2.8,0,4.9,0.6,6.2,1.7c1.4,1.1,2,2.7,2,4.8c0,1.3-0.4,2.4-1.1,3.4c-0.7,1-1.8,1.6-3.1,1.8v0
		c1.5,0.2,2.7,0.9,3.5,1.9c0.9,1,1.3,2.2,1.3,3.6c0,2.1-0.8,3.7-2.3,4.8s-3.7,1.7-6.4,1.7h-9.5V159.8z M430.6,170.1
		c3,0,4.5-1.2,4.5-3.5c0-2.3-1.5-3.5-4.5-3.5h-5.3v7H430.6z M431.2,180.4c1.5,0,2.6-0.3,3.4-0.9c0.8-0.6,1.2-1.5,1.2-2.6
		c0-1.2-0.4-2-1.2-2.6c-0.8-0.6-1.9-0.9-3.4-0.9h-5.9v7.1H431.2z"/>
	<path class="st0" d="M463.1,180.3v3.3h-17.7v-23.8h17.2v3.3h-13.4v6.8h10.4v3.2h-10.4v7.1H463.1z"/>
	<path class="st0" d="M485.9,163.2h-8.1v20.4h-3.9v-20.4h-8.1v-3.3h20.1V163.2z"/>
	<path class="st0" d="M500.7,177.4h-10l-2.3,6.2h-4l9-23.8h4.6l9,23.8H503L500.7,177.4z M499.6,174.2l-2.7-7.6l-1.1-3.4h-0.1l-1,3.3
		l-2.8,7.7H499.6z"/>
</g>
</svg>
