<?xml version="1.0" encoding="utf-8"?>
<!-- Generator: Adobe Illustrator 20.0.0, SVG Export Plug-In . SVG Version: 6.00 Build 0)  -->
<svg version="1.1" id="Layer_1" xmlns="http://www.w3.org/2000/svg" xmlns:xlink="http://www.w3.org/1999/xlink" x="0px" y="0px"
	 viewBox="0 0 547.2 185" style="enable-background:new 0 0 547.2 185;" xml:space="preserve">
<style type="text/css">
	.st0{fill:#57ADF1;}
</style>
<g>
	<path class="st0" d="M347.8,64.9h12.5"/>
	<path class="st0" d="M173.3,51.9c6.6-0.5,13.2-1,19.9-1.6c14.3-1.1,28.6-2.3,42.9-3.8l21.4-2.2c7.1-0.8,14.2-1.7,21.4-2.6l21.3-2.9
		l21.3-3.3c14.2-2.3,28.3-4.7,42.4-7.2c14.1-2.6,28.2-5.4,42.2-8.3c7-1.4,14-3,21-4.5s14-3.1,21-4.8l-0.6-2.8l-42.3,7.3
		c-14.1,2.5-28.2,4.8-42.4,7c-14.1,2.3-28.3,4.6-42.4,6.6l-42.5,6l-21.3,2.8l-21.3,2.8c-14.2,1.8-28.4,3.5-42.6,5
		c-5.2,0.5-10.4,1-15.5,1.5c-0.2,0.5-0.4,1-0.7,1.5C175.7,49.7,174.6,50.9,173.3,51.9z"/>
	<path class="st0" d="M112.8,59.4L112.8,59.4C112.8,59.3,112.8,59.3,112.8,59.4C112.8,59.3,112.8,59.4,112.8,59.4z"/>
	<path class="st0" d="M142.7,64.3c0.4,5.1,0.8,11.4,1.1,12.4c0.2,0.8,1.8,0.7,1.8,0.7s1.8-0.5,4-1.1c1.3-0.3,1.7-1.8,1.7-1.8
		l3.8-10.4c-2,0-4,0.1-5.9,0.1C147,64.3,144.9,64.3,142.7,64.3z"/>
	<path class="st0" d="M119.5,64.6l-0.6,4.5l4.3-1.2l1.2-3.3c-1.2,0-2.3,0-3.5,0C120.4,64.6,119.9,64.6,119.5,64.6z"/>
	<path class="st0" d="M120.3,56.9"/>
	<path class="st0" d="M159.2,52.9"/>
	<path class="st0" d="M114.5,56.6"/>
	<path class="st0" d="M174.9,58"/>
	<polyline class="st0" points="159.2,52.9 157.2,56.4 142.3,56.4 141.4,54.4 	"/>
	<path class="st0" d="M172.9,43.1c-1.9-6.3-16.8-1.6-16.8-1.6L138,26.2c-0.9-0.6-1.4-0.4-1.4-0.4s-3.1,0.6-4.8,1.3
		c-1.7,0.6-0.8,1.8-0.8,1.8l8.4,17l-0.9,0.4l-4.9,2.3l-7.4,3.4l0,0l-0.6,0.3l-0.9,0.4l-0.7-0.5l-1.9-1.4l-4.8-3.5l-4.2,1.1l2.9,3.5
		l1.2,1.4l3,3.6c0.1,0,0.1,0,0.2,0l-0.2,1l37-1.4l-3.3-3.1c1.7-0.1,3.5-0.3,5.2-0.4l0,0c0,0,6.8-1.5,10.9-4.3l0,0
		c0.1-0.1,0.2-0.1,0.3-0.2s0.2-0.2,0.3-0.2l0.1-0.1c0.2-0.2,0.4-0.3,0.6-0.5h-0.1l0,0h0.1c0.6-0.6,1-1.1,1.4-1.8
		C173.1,44.9,173.2,44.1,172.9,43.1z"/>
	<path class="st0" d="M533.7,15.7c-8.8,1.6-14.7,4.6-23.5,6.1l-26.4,4.3c-8.8,1.4-17.6,2.7-26.4,4l-26.5,3.7
		c-17.7,2.4-35.3,4.7-53,6.7c-8.8,1.1-17.7,2-26.5,3.1l-26.6,3c-8.9,1-17.7,1.9-26.6,2.8s-17.7,1.8-26.6,2.5
		c-8.9,0.8-17.8,1.4-26.7,2.1c-8.9,0.6-17.8,1.2-26.7,1.7s-17.8,1-26.7,1.3l-13.4,0.6L164.7,58c-0.7,0-1.4,0-2.1,0.1l0,0h-0.2
		c-0.1,0-0.2,0-0.3,0c-1.6,0.1-3.3,0.1-4.9,0.1l0,0l-6.9,0.2l0,0l-33.9,0.4l-3.7-3.9l0,0l-0.3-0.3c-0.1,0.1-0.3,0.1-0.5,0.2
		c-0.9,0.5-2.1,1-3,2.6c-0.4,0.8-0.5,1.8-0.4,2.6c0.2,0.8,0.5,1.4,0.8,1.9l0.6,1l4.9-0.1l49.6-0.6c0.1,0,0.2,0,0.2,0l13.4-0.3
		l13.4-0.4c8.9-0.3,17.9-0.7,26.8-1l26.8-1.3l26.8-1.6c8.9-0.5,17.8-1.1,26.8-1.8c8.9-0.7,17.8-1.4,26.7-2.2l13.4-1.2L352,51
		c8.9-0.9,17.8-2,26.6-3.1c8.9-1.1,17.7-2.4,26.6-3.6s17.7-2.6,26.5-4s17.6-2.9,26.4-4.5s17.6-3.3,26.3-5l13.1-2.7l13.1-2.9
		c8.7-2,20.2-6.4,28.8-8.7L533.7,15.7z"/>
	<path class="st0" d="M547.2,15.2l-47,10.1v119.2h-15.8V25.2l-48.9-10V1.4c55.8,18.6,111.6,0,111.6,0L547.2,15.2L547.2,15.2z"/>
	<polygon class="st0" points="531.4,5.4 532.8,18 540.8,16.4 539.7,3.5 	"/>
	<path class="st0" d="M439,2.5c0,0,7.2,2,8.8,2.4c0.2,0-0.8,12.6-0.8,12.6l-8.8-1.8L439,2.5z"/>
	<path class="st0" d="M49.7,73.8c4.8,2.5,8.9,6.2,12.2,11.3l-9.1,8.2c-2.1-4.5-4.7-7.7-7.8-9.7s-7.3-3-12.5-3s-9.1,1-12,3.1
		c-2.8,2.1-4.3,4.7-4.3,7.9c0,3,1.4,5.4,4.1,7.1c2.8,1.8,7.7,3.3,14.8,4.5c6.6,1.2,11.9,2.7,15.8,4.5s6.8,4.1,8.6,6.8
		c1.8,2.7,2.7,6.1,2.7,10.1c0,4.3-1.2,8.1-3.7,11.4c-2.5,3.3-5.9,5.8-10.4,7.6c-4.4,1.8-9.6,2.6-15.4,2.6c-15,0-25.6-5-31.8-15
		l8.4-8.4c2.4,4.5,5.5,7.8,9.2,9.9c3.8,2.1,8.5,3.1,14.1,3.1c5.3,0,9.5-0.9,12.5-2.7s4.5-4.4,4.5-7.8c0-2.7-1.4-4.9-4.1-6.5
		s-7.5-3.1-14.3-4.4S19,111.6,15,109.7s-7-4.2-8.8-6.9c-1.8-2.8-2.7-6.1-2.7-10.1c0-4.2,1.2-8,3.5-11.4s5.7-6.2,10-8.2
		c4.4-2,9.5-3,15.3-3C39.1,70.1,44.9,71.4,49.7,73.8z"/>
	<path class="st0" d="M89,128.8c0,2.8,0.4,4.7,1.2,5.8s2.4,1.6,4.6,1.6c1.4,0,2.6-0.1,3.6-0.3s2.3-0.6,3.8-1.2l-1.3,9.6
		c-2.5,1.3-5.6,1.9-9.3,1.9c-5,0-8.7-1.3-11-3.8c-2.4-2.5-3.5-6.5-3.5-12V64h12L89,128.8L89,128.8z"/>
	<path class="st0" d="M124.3,145.2h-12v-56h12V145.2z"/>
	<path class="st0" d="M188.3,93.4c3.9,3.6,5.9,8.7,5.9,15.5v36.3h-12v-32.5c0-9.9-4-14.8-12-14.8c-4.2,0-7.8,1.4-10.8,4.3
		s-4.5,7.3-4.5,13.3v29.7h-12v-56h10.6l0.6,9.3c1.9-3.5,4.4-6.1,7.7-7.8c3.3-1.7,7-2.6,11.2-2.6C179.3,88.1,184.4,89.9,188.3,93.4z"
		/>
	<path class="st0" d="M258.1,140.3c3.1,2.5,4.7,6,4.7,10.5c0,3.8-1.3,7.1-3.8,9.9c-2.5,2.8-5.9,4.9-10.3,6.4s-9.3,2.2-14.7,2.2
		c-8.9,0-15.6-1.3-20-3.9c-4.4-2.6-6.7-6.1-6.7-10.4c0-2.5,0.9-4.8,2.6-6.7c1.8-1.9,4.2-3.3,7.3-4.1c-2.4-1.1-4.3-2.6-5.7-4.3
		c-1.4-1.8-2.1-3.9-2.1-6.3c0-5.4,2.9-9.2,8.7-11.2c-2.8-1.6-5-3.8-6.4-6.4c-1.5-2.6-2.2-5.6-2.2-9c0-3.7,1-7,3-9.9s4.9-5.1,8.6-6.7
		c3.7-1.6,7.9-2.4,12.7-2.4c4.1,0,7.9,0.6,11.3,1.8c1-4.1,2.9-7.2,5.7-9.4c2.7-2.1,6.3-3.2,10.8-3.1l2,9.3c-3.6-0.1-6.5,0.4-8.7,1.3
		c-2.2,1-3.7,2.4-4.5,4.4c2.5,1.7,4.4,3.8,5.7,6.3c1.3,2.5,2,5.2,2,8.3c0,5.8-2.2,10.3-6.7,13.8c-4.4,3.4-10.3,5.2-17.6,5.2
		c-3.4,0-6.5-0.3-9.3-1c-1.9,0.4-3.2,1.2-4.1,2.2c-0.9,1-1.3,2.3-1.3,4s0.6,3,1.8,4c1.2,0.9,2.9,1.4,5.1,1.4h18.7
		C250.6,136.4,255,137.7,258.1,140.3z M247.9,157.9c3.1-1.6,4.6-3.5,4.6-5.8c0-1.9-0.7-3.3-2.2-4.3s-4-1.5-7.5-1.5h-15.1
		c-3.4,0-5.9,0.5-7.6,1.6c-1.7,1-2.5,2.5-2.5,4.4c0,2.5,1.5,4.5,4.4,5.9s7.3,2.1,13.2,2.1C240.6,160.3,244.9,159.5,247.9,157.9z
		 M225.3,99.4c-2.3,2-3.5,4.5-3.5,7.6s1.2,5.7,3.5,7.7s5.2,3,8.6,3c3.5,0,6.4-1,8.7-3s3.4-4.5,3.4-7.7c0-3.1-1.1-5.7-3.4-7.6
		s-5.2-2.9-8.7-2.9C230.5,96.5,227.6,97.4,225.3,99.4z"/>
	<path class="st0" d="M318.6,73.8c4.8,2.5,8.9,6.2,12.2,11.3l-9.1,8.2c-2.1-4.5-4.7-7.7-7.8-9.7c-3.1-2-7.3-3-12.5-3s-9.1,1-12,3.1
		c-2.8,2.1-4.3,4.7-4.3,7.9c0,3,1.4,5.4,4.1,7.1c2.8,1.8,7.7,3.3,14.8,4.5c6.6,1.2,11.9,2.7,15.8,4.5s6.8,4.1,8.6,6.8
		c1.8,2.7,2.7,6.1,2.7,10.1c0,4.3-1.2,8.1-3.7,11.4c-2.5,3.3-5.9,5.8-10.4,7.6c-4.4,1.8-9.6,2.6-15.4,2.6c-15,0-25.6-5-31.8-15
		l8.4-8.4c2.4,4.5,5.5,7.8,9.2,9.9c3.8,2.1,8.5,3.1,14.1,3.1c5.3,0,9.5-0.9,12.5-2.7s4.5-4.4,4.5-7.8c0-2.7-1.4-4.9-4.1-6.5
		s-7.5-3.1-14.3-4.4s-12.2-2.8-16.2-4.7s-7-4.2-8.8-6.9c-1.8-2.8-2.7-6.1-2.7-10.1c0-4.2,1.2-8,3.5-11.4s5.7-6.2,10-8.2
		c4.4-2,9.5-3,15.3-3C308,70.1,313.8,71.4,318.6,73.8z"/>
	<path class="st0" d="M391.6,93.4c3.9,3.6,5.9,8.7,5.9,15.5v36.3h-12v-32.5c0-9.9-4-14.8-12-14.8c-4.2,0-7.8,1.5-10.8,4.4
		s-4.5,7.4-4.5,13.3v29.6h-12V64h12v34.2c1.9-3.4,4.3-6,7.4-7.6s6.7-2.5,10.7-2.5C382.6,88.1,387.6,89.9,391.6,93.4z"/>
	<path class="st0" d="M460.7,95.8c4.9,5.2,7.4,12.3,7.4,21.4s-2.5,16.2-7.4,21.4s-11.8,7.7-20.5,7.7s-15.6-2.6-20.5-7.7
		c-4.9-5.2-7.4-12.3-7.4-21.4s2.5-16.2,7.4-21.4s11.8-7.7,20.5-7.7C449,88.1,455.8,90.6,460.7,95.8z M428.5,102.6
		c-2.7,3.4-4.1,8.3-4.1,14.6s1.4,11.2,4.1,14.6c2.7,3.4,6.6,5.1,11.7,5.1s9-1.7,11.8-5.2c2.8-3.4,4.1-8.3,4.1-14.6
		s-1.4-11.1-4.1-14.6c-2.8-3.4-6.7-5.2-11.8-5.2C435.1,97.5,431.2,99.2,428.5,102.6z"/>
</g>
<g>
	<path class="st0" d="M422.4,161.2h9.4c2.8,0,4.9,0.6,6.2,1.7c1.4,1.1,2,2.7,2,4.8c0,1.3-0.4,2.4-1.1,3.4c-0.7,1-1.8,1.6-3.1,1.8v0
		c1.5,0.2,2.7,0.9,3.5,1.9c0.9,1,1.3,2.2,1.3,3.6c0,2.1-0.8,3.7-2.3,4.8s-3.7,1.7-6.4,1.7h-9.5V161.2z M431.5,171.5
		c3,0,4.5-1.2,4.5-3.5c0-2.3-1.5-3.5-4.5-3.5h-5.3v7H431.5z M432.1,181.8c1.5,0,2.6-0.3,3.4-0.9c0.8-0.6,1.2-1.5,1.2-2.6
		c0-1.2-0.4-2-1.2-2.6c-0.8-0.6-1.9-0.9-3.4-0.9h-5.9v7.1H432.1z"/>
	<path class="st0" d="M464,181.7v3.3h-17.7v-23.8h17.2v3.3h-13.4v6.8h10.4v3.2h-10.4v7.1H464z"/>
	<path class="st0" d="M486.8,164.6h-8.1V185h-3.9v-20.4h-8.1v-3.3h20.1V164.6z"/>
	<path class="st0" d="M501.6,178.8h-10l-2.3,6.2h-4l9-23.8h4.6l9,23.8h-4.1L501.6,178.8z M500.5,175.6l-2.7-7.6l-1.1-3.4h-0.1
		l-1,3.3l-2.8,7.7H500.5z"/>
</g>
</svg>
